<svg xmlns="http://www.w3.org/2000/svg" width="144" height="144" fill="#ccc" viewBox="0 0 16 16">
  <path d="M13 8c0 .564-.094 1.107-.266 1.613l-.814-.814A4.02 4.02 0 0 0 12 8V7a.5.5 0 0 1 1 0v1zm-5 4c.818 0 1.578-.245 2.212-.667l.718.719a4.973 4.973 0 0 1-2.43.923V14h2a.5.5 0 0 1 0 1h-5a.5.5 0 0 1 0-1h2v-1.025A5.001 5.001 0 0 1 3 8V7a.5.5 0 0 1 1 0v1c0 .437.06.859.169 1.264l.711-.711A2.99 2.99 0 0 1 5 8V5.188L13.188 13 8 12z"/>
  <path d="M9.486 10.607 5 6.12V8a3 3 0 0 0 4.486 2.607z"/>
  <path d="m1.646 1.646 12 12 .708-.708-12-12-.708.708z" fill="white"/>
</svg>